<svg t="1739707057280" class="icon" viewBox="0 0 1024 1024" version="1.1" xmlns="http://www.w3.org/2000/svg" p-id="5592" width="128" height="128"><path d="M709.632 525.312zM709.632 525.312c-17.92 0-33.28 12.8-36.352 30.72-14.336 81.408-85.504 142.848-171.008 142.848s-156.672-61.44-171.008-142.848c-3.072-17.92-18.432-30.72-36.352-30.72-23.04 0-40.448 20.992-36.352 43.52 20.48 115.712 121.856 204.288 244.224 204.288 121.856 0 223.232-88.064 244.224-204.288 3.584-22.528-14.336-43.52-37.376-43.52zM663.04 432.128c16.896 0 33.28-6.656 45.056-18.432 11.776-11.776 18.432-28.16 18.432-45.056 0-16.896-6.656-33.28-18.432-45.056-11.776-11.776-28.16-18.432-45.056-18.432-16.896 0-33.28 6.656-45.056 18.432-11.776 11.776-18.432 28.16-18.432 45.056 0 16.896 6.656 33.28 18.432 45.056 11.776 11.264 28.16 18.432 45.056 18.432zM341.504 432.128c16.896 0 33.28-6.656 45.056-18.432 11.776-11.776 18.432-28.16 18.432-45.056 0-16.896-6.656-33.28-18.432-45.056-11.776-11.776-28.16-18.432-45.056-18.432-16.896 0-33.28 6.656-45.056 18.432-11.776 11.776-18.432 28.16-18.432 45.056 0 16.896 6.656 33.28 18.432 45.056 11.776 11.264 28.672 18.432 45.056 18.432z" fill="#bfbfbf" p-id="5593"></path><path d="M512 12.8C236.544 12.8 12.8 236.544 12.8 512s223.744 499.2 499.2 499.2 499.2-223.744 499.2-499.2S787.456 12.8 512 12.8z m0 919.04c-231.936 0-419.84-187.904-419.84-419.84s187.904-419.84 419.84-419.84 419.84 187.904 419.84 419.84-187.904 419.84-419.84 419.84z" fill="#bfbfbf" p-id="5594"></path></svg>