<svg t="1739709078446" class="icon" viewBox="0 0 1324 1024" version="1.1" xmlns="http://www.w3.org/2000/svg" p-id="22667" width="128" height="128"><path d="M606.208 0h155.101867c44.6464 18.568533 78.370133 54.0672 108.544 90.794667 37.000533-11.741867 73.728-30.037333 113.595733-27.0336 83.5584 6.9632 158.651733 81.646933 156.4672 167.5264 4.778667 65.809067-33.450667 121.787733-62.122667 177.629866-12.014933 23.893333-23.3472 52.292267-10.6496 78.506667 51.473067 33.314133 117.282133 41.096533 162.474667 84.923733 45.602133 44.509867 72.9088 103.765333 94.754133 162.747734v118.784c-49.425067 66.7648-148.411733 61.0304-216.405333 28.808533 55.569067-7.645867 112.776533-2.730667 167.389867-16.110933 41.096533-18.978133 38.638933-73.045333 29.354666-110.318934-21.572267-81.373867-64.3072-171.349333-149.777066-200.704-36.727467-17.476267-82.602667-24.302933-108.680534-58.1632-28.125867-44.6464 7.918933-93.252267 27.579734-133.393066 33.450667-54.613333 55.978667-122.743467 31.266133-185.275734-31.9488-83.968-151.552-122.0608-220.910933-59.938133-7.236267 64.034133 11.4688 131.345067-13.653334 193.058133-16.930133 51.336533-52.292267 98.304-51.063466 154.146134 22.801067 57.890133 81.5104 90.385067 120.0128 137.079466 74.9568 85.060267 136.942933 195.242667 129.297066 311.978667-4.369067 67.037867-71.68 101.717333-131.208533 108.9536H400.1792c-28.535467-6.5536-59.118933-11.4688-82.875733-29.4912-12.151467-19.6608-18.978133-42.052267-27.4432-63.214933-97.621333 4.096-205.346133 17.476267-289.860267-42.5984V787.797333c35.908267-86.562133 79.735467-177.493333 158.651733-232.6528 44.6464-33.723733 109.226667-45.192533 141.448534-92.433066-21.026133-55.569067-65.809067-101.444267-72.362667-162.338134-12.970667-86.971733 31.812267-184.32 115.0976-218.999466 49.834667-22.1184 103.492267-1.911467 152.917333 10.376533C527.5648 55.842133 562.3808 21.2992 606.208 0m-66.7648 75.776c-52.4288 67.720533-50.3808 159.744-38.0928 240.162133 12.970667 65.672533 37.6832 139.537067 101.034667 172.578134 51.6096 28.2624 109.636267 0.682667 161.109333-12.834134-49.425067 77.277867-171.895467 62.6688-222.958933-5.597866-74.410667-97.8944-86.4256-232.6528-55.022934-348.9792-43.281067-24.302933-98.030933-38.638933-144.042666-12.834134-93.7984 48.469333-116.053333 182.6816-60.2112 267.605334 15.837867 34.4064 58.299733 73.045333 31.5392 112.2304-48.196267 56.797867-132.3008 63.8976-181.4528 120.149333-52.292267 61.0304-95.709867 132.027733-116.053334 210.1248-13.380267 34.269867 13.243733 69.358933 46.6944 76.458667 77.277867 20.8896 158.651733 17.885867 237.294934 6.9632 15.837867-55.842133 34.542933-125.7472 97.757866-144.1792 38.5024-13.9264 62.532267 23.483733 84.650667 47.786666-23.210667 39.867733-49.288533 83.421867-96.392533 97.8944-22.254933 14.609067-72.362667 13.380267-65.809067 50.517334 3.140267 29.0816 37.000533 39.185067 61.713067 41.7792 135.850667 18.0224 273.339733 14.7456 410.146133 15.291733 65.672533-1.092267 132.7104-3.413333 195.925333-22.9376 40.96-14.062933 62.6688-59.255467 58.1632-100.7616-8.328533-120.0128-73.181867-231.8336-164.113066-308.974933-36.0448-35.771733-87.108267-71.133867-86.4256-127.3856 5.870933-73.454933 63.488-131.4816 67.037866-205.6192 6.690133-69.768533-3.6864-151.1424-61.576533-197.973334C723.080533-7.509333 600.4736-0.136533 539.4432 75.776M398.677333 781.9264c-48.3328 18.978133-63.0784 72.362667-73.728 117.9648 49.698133-16.7936 108.544-37.546667 126.429867-92.706133-9.693867-18.295467-30.856533-38.775467-52.701867-25.258667z" fill="#8a8a8a" opacity=".44" p-id="22668"></path></svg>